<svg version="1.1" viewBox="0.0 0.0 277.8950131233596 372.0577427821522" fill="none" stroke="none" stroke-linecap="square" stroke-miterlimit="10" xmlns:xlink="http://www.w3.org/1999/xlink" xmlns="http://www.w3.org/2000/svg"><clipPath id="p.0"><path d="m0 0l277.89502 0l0 372.05774l-277.89502 0l0 -372.05774z" clip-rule="nonzero"/></clipPath><g clip-path="url(#p.0)"><path fill="#000000" fill-opacity="0.0" d="m0 0l277.89502 0l0 372.05774l-277.89502 0z" fill-rule="evenodd"/><path fill="#f9d311" d="m85.050026 150.29625l3.499031 3.3428955l0.7768707 7.474472l-2.9154434 4.3272095l-2.137329 1.7705078l-3.10997 -4.1303406l-1.1659317 -7.080765l1.9428024 -3.7378693z" fill-rule="evenodd"/><path stroke="#f9d311" stroke-width="1.0" stroke-linejoin="round" stroke-linecap="butt" d="m85.050026 150.29625l3.499031 3.3428955l0.7768707 7.474472l-2.9154434 4.3272095l-2.137329 1.7705078l-3.10997 -4.1303406l-1.1659317 -7.080765l1.9428024 -3.7378693z" fill-rule="evenodd"/><path fill="#f9d311" d="m125.08482 167.01447l-4.664963 -2.9504242l-1.1659241 -5.310257l-0.1945343 -5.7039795l2.1385803 -2.5566864l4.0813675 0.19560242l2.3318558 3.7378693l2.1385803 4.916519l-0.97265625 4.131607z" fill-rule="evenodd"/><path stroke="#f9d311" stroke-width="1.0" stroke-linejoin="round" stroke-linecap="butt" d="m125.08482 167.01447l-4.664963 -2.9504242l-1.1659241 -5.310257l-0.1945343 -5.7039795l2.1385803 -2.5566864l4.0813675 0.19560242l2.3318558 3.7378693l2.1385803 4.916519l-0.97265625 4.131607z" fill-rule="evenodd"/><path fill="#f9d311" d="m181.31506 144.06732l4.6637115 4.720932l1.1659393 5.5071106l-0.38781738 5.5071106l-2.7209167 3.147293l-5.4430695 -2.7535553l-1.5537415 -6.6882935l1.1659241 -6.687042z" fill-rule="evenodd"/><path stroke="#f9d311" stroke-width="1.0" stroke-linejoin="round" stroke-linecap="butt" d="m181.31506 144.06732l4.6637115 4.720932l1.1659393 5.5071106l-0.38781738 5.5071106l-2.7209167 3.147293l-5.4430695 -2.7535553l-1.5537415 -6.6882935l1.1659241 -6.687042z" fill-rule="evenodd"/><path fill="#f9d311" d="m204.2463 128.3322l4.664963 2.7535553l2.3330994 5.507126l0.7768707 4.327194l-3.8868408 0.7874603l-3.888092 -1.9673767l-2.3318481 -4.327194l-1.1659241 -3.9334717z" fill-rule="evenodd"/><path stroke="#f9d311" stroke-width="1.0" stroke-linejoin="round" stroke-linecap="butt" d="m204.2463 128.3322l4.664963 2.7535553l2.3330994 5.507126l0.7768707 4.327194l-3.8868408 0.7874603l-3.888092 -1.9673767l-2.3318481 -4.327194l-1.1659241 -3.9334717z" fill-rule="evenodd"/><path fill="#f9d311" d="m206.57906 175.53755l6.218689 3.5410156l0.77812195 6.2933044l-2.3318481 3.5410156l-6.2199554 -3.9334717l0 -5.1146545z" fill-rule="evenodd"/><path stroke="#f9d311" stroke-width="1.0" stroke-linejoin="round" stroke-linecap="butt" d="m206.57906 175.53755l6.218689 3.5410156l0.77812195 6.2933044l-2.3318481 3.5410156l-6.2199554 -3.9334717l0 -5.1146545z" fill-rule="evenodd"/><path fill="#f9d311" d="m157.99362 179.86475l6.6077576 8.654404l-1.1659393 7.4744873l-3.8868408 3.1472778l-5.054016 -1.5736389l-2.3318481 -6.294571l0 -6.2933044z" fill-rule="evenodd"/><path stroke="#f9d311" stroke-width="1.0" stroke-linejoin="round" stroke-linecap="butt" d="m157.99362 179.86475l6.6077576 8.654404l-1.1659393 7.4744873l-3.8868408 3.1472778l-5.054016 -1.5736389l-2.3318481 -6.294571l0 -6.2933044z" fill-rule="evenodd"/><path fill="#f9d311" d="m110.18469 196.38731l1.944046 8.260681l-1.1659241 9.440582l-6.219948 0l-1.1659241 -5.5071106l0 -8.654404z" fill-rule="evenodd"/><path stroke="#f9d311" stroke-width="1.0" stroke-linejoin="round" stroke-linecap="butt" d="m110.18469 196.38731l1.944046 8.260681l-1.1659241 9.440582l-6.219948 0l-1.1659241 -5.5071106l0 -8.654404z" fill-rule="evenodd"/><path fill="#f9d311" d="m75.808304 191.09853l1.944046 8.260681l-1.1659241 9.440582l-6.219948 0l-1.1659241 -5.5071106l0 -8.654404z" fill-rule="evenodd"/><path stroke="#f9d311" stroke-width="1.0" stroke-linejoin="round" stroke-linecap="butt" d="m75.808304 191.09853l1.944046 8.260681l-1.1659241 9.440582l-6.219948 0l-1.1659241 -5.5071106l0 -8.654404z" fill-rule="evenodd"/><path fill="#f9d311" d="m61.556374 133.57808l3.499031 3.3428955l0.7768707 7.474472l-2.9154434 4.3272095l-2.1373253 1.7705078l-3.109974 -4.1303406l-1.1659279 -7.080765l1.9427986 -3.7378693z" fill-rule="evenodd"/><path stroke="#f9d311" stroke-width="1.0" stroke-linejoin="round" stroke-linecap="butt" d="m61.556374 133.57808l3.499031 3.3428955l0.7768707 7.474472l-2.9154434 4.3272095l-2.1373253 1.7705078l-3.109974 -4.1303406l-1.1659279 -7.080765l1.9427986 -3.7378693z" fill-rule="evenodd"/><path fill="#f9d311" d="m148.48283 135.76054l-5.426895 -3.0203705l-1.356369 -5.436165l-0.2263031 -5.839226l2.4878693 -2.6173096l4.748001 0.20023346l2.7127228 3.8265l2.4878845 5.033104l-1.1315155 4.229561z" fill-rule="evenodd"/><path stroke="#f9d311" stroke-width="1.0" stroke-linejoin="round" stroke-linecap="butt" d="m148.48283 135.76054l-5.426895 -3.0203705l-1.356369 -5.436165l-0.2263031 -5.839226l2.4878693 -2.6173096l4.748001 0.20023346l2.7127228 3.8265l2.4878845 5.033104l-1.1315155 4.229561z" fill-rule="evenodd"/><path fill="#f9d311" d="m104.39163 110.63098l5.7395706 4.425377l1.4348984 5.1623535l-0.47727966 5.162346l-3.3485947 2.9502563l-6.6987305 -2.5811768l-1.9121628 -6.2695847l1.4348907 -6.2683945z" fill-rule="evenodd"/><path stroke="#f9d311" stroke-width="1.0" stroke-linejoin="round" stroke-linecap="butt" d="m104.39163 110.63098l5.7395706 4.425377l1.4348984 5.1623535l-0.47727966 5.162346l-3.3485947 2.9502563l-6.6987305 -2.5811768l-1.9121628 -6.2695847l1.4348907 -6.2683945z" fill-rule="evenodd"/><path fill="#f9d311" d="m191.24782 208.79974l6.6077576 8.654404l-1.1659241 7.4744873l-3.8868408 3.1472778l-5.054016 -1.5736389l-2.3318634 -6.294571l0 -6.2933044z" fill-rule="evenodd"/><path stroke="#f9d311" stroke-width="1.0" stroke-linejoin="round" stroke-linecap="butt" d="m191.24782 208.79974l6.6077576 8.654404l-1.1659241 7.4744873l-3.8868408 3.1472778l-5.054016 -1.5736389l-2.3318634 -6.294571l0 -6.2933044z" fill-rule="evenodd"/><path fill="#f9d311" d="m224.3449 203.90594l5.988846 7.947006l-1.0567169 6.8635254l-3.5227814 2.89003l-4.5806427 -1.4450073l-2.1134338 -5.78006l0 -5.7789z" fill-rule="evenodd"/><path stroke="#f9d311" stroke-width="1.0" stroke-linejoin="round" stroke-linecap="butt" d="m224.3449 203.90594l5.988846 7.947006l-1.0567169 6.8635254l-3.5227814 2.89003l-4.5806427 -1.4450073l-2.1134338 -5.78006l0 -5.7789z" fill-rule="evenodd"/><path fill="#f9d311" d="m138.96878 219.02777l6.6077576 8.654388l-1.1659393 7.4744873l-3.8868408 3.147293l-5.054016 -1.5736542l-2.3318481 -6.2945557l0 -6.2933197z" fill-rule="evenodd"/><path stroke="#f9d311" stroke-width="1.0" stroke-linejoin="round" stroke-linecap="butt" d="m138.96878 219.02777l6.6077576 8.654388l-1.1659393 7.4744873l-3.8868408 3.147293l-5.054016 -1.5736542l-2.3318481 -6.2945557l0 -6.2933197z" fill-rule="evenodd"/><path fill="#f9d311" d="m170.43121 240.48956l6.6077576 8.654404l-1.1659241 7.474472l-3.8868408 3.1472778l-5.054016 -1.5736389l-2.3318634 -6.2945557l0 -6.2933044z" fill-rule="evenodd"/><path stroke="#f9d311" stroke-width="1.0" stroke-linejoin="round" stroke-linecap="butt" d="m170.43121 240.48956l6.6077576 8.654404l-1.1659241 7.474472l-3.8868408 3.1472778l-5.054016 -1.5736389l-2.3318634 -6.2945557l0 -6.2933044z" fill-rule="evenodd"/><path fill="#f9d311" d="m32.026234 199.14087l4.955467 7.5941925l-0.87438583 6.558838l-2.9149246 2.7617188l-3.790247 -1.3808594l-1.7487698 -5.5234528l0 -5.522354z" fill-rule="evenodd"/><path stroke="#f9d311" stroke-width="1.0" stroke-linejoin="round" stroke-linecap="butt" d="m32.026234 199.14087l4.955467 7.5941925l-0.87438583 6.558838l-2.9149246 2.7617188l-3.790247 -1.3808594l-1.7487698 -5.5234528l0 -5.522354z" fill-rule="evenodd"/><path fill="#f9d311" d="m96.97023 236.38196l6.6077576 8.654388l-1.1659317 7.4744873l-3.8868408 3.1472778l-5.054016 -1.5736389l-2.3318558 -6.294571l0 -6.2933044z" fill-rule="evenodd"/><path stroke="#f9d311" stroke-width="1.0" stroke-linejoin="round" stroke-linecap="butt" d="m96.97023 236.38196l6.6077576 8.654388l-1.1659317 7.4744873l-3.8868408 3.1472778l-5.054016 -1.5736389l-2.3318558 -6.294571l0 -6.2933044z" fill-rule="evenodd"/><path fill="#f9d311" d="m56.97791 214.96432l6.6077576 7.417801l-1.1659279 6.406479l-3.8868408 2.6975708l-5.05402 -1.3487854l-2.3318558 -5.395157l0 -5.3940735z" fill-rule="evenodd"/><path stroke="#f9d311" stroke-width="1.0" stroke-linejoin="round" stroke-linecap="butt" d="m56.97791 214.96432l6.6077576 7.417801l-1.1659279 6.406479l-3.8868408 2.6975708l-5.05402 -1.3487854l-2.3318558 -5.395157l0 -5.3940735z" fill-rule="evenodd"/><path fill="#f9d311" d="m205.9965 246.60997l6.6077423 8.654404l-1.1659241 7.4744873l-3.8868408 3.1472778l-5.054016 -1.5736389l-2.3318481 -6.294586l0 -6.293289z" fill-rule="evenodd"/><path stroke="#f9d311" stroke-width="1.0" stroke-linejoin="round" stroke-linecap="butt" d="m205.9965 246.60997l6.6077423 8.654404l-1.1659241 7.4744873l-3.8868408 3.1472778l-5.054016 -1.5736389l-2.3318481 -6.294586l0 -6.293289z" fill-rule="evenodd"/><path fill="#f9d311" d="m124.016235 255.65807l6.6077576 8.654404l-1.1659393 7.4744873l-3.8868332 3.1472778l-5.054016 -1.5736389l-2.3318558 -6.2945557l0 -6.2933044z" fill-rule="evenodd"/><path stroke="#f9d311" stroke-width="1.0" stroke-linejoin="round" stroke-linecap="butt" d="m124.016235 255.65807l6.6077576 8.654404l-1.1659393 7.4744873l-3.8868332 3.1472778l-5.054016 -1.5736389l-2.3318558 -6.2945557l0 -6.2933044z" fill-rule="evenodd"/><path fill="#f9d311" d="m154.75423 276.54947l6.6077576 8.654388l-1.1659241 7.4744873l-3.8868408 3.1473083l-5.054016 -1.5736694l-2.3318481 -6.2945557l0 -6.2933044z" fill-rule="evenodd"/><path stroke="#f9d311" stroke-width="1.0" stroke-linejoin="round" stroke-linecap="butt" d="m154.75423 276.54947l6.6077576 8.654388l-1.1659241 7.4744873l-3.8868408 3.1473083l-5.054016 -1.5736694l-2.3318481 -6.2945557l0 -6.2933044z" fill-rule="evenodd"/><path fill="#f9d311" d="m186.0658 279.91507l6.6077576 8.654388l-1.1659241 7.4744873l-3.8868408 3.1472778l-5.054016 -1.5736389l-2.3318634 -6.2945557l0 -6.2933044z" fill-rule="evenodd"/><path stroke="#f9d311" stroke-width="1.0" stroke-linejoin="round" stroke-linecap="butt" d="m186.0658 279.91507l6.6077576 8.654388l-1.1659241 7.4744873l-3.8868408 3.1472778l-5.054016 -1.5736389l-2.3318634 -6.2945557l0 -6.2933044z" fill-rule="evenodd"/><path fill="#f9d311" d="m117.95891 293.9024l6.60775 8.654388l-1.1659241 7.4744873l-3.8868408 3.1472778l-5.054016 -1.5736389l-2.3318558 -6.2945557l0 -6.2933044z" fill-rule="evenodd"/><path stroke="#f9d311" stroke-width="1.0" stroke-linejoin="round" stroke-linecap="butt" d="m117.95891 293.9024l6.60775 8.654388l-1.1659241 7.4744873l-3.8868408 3.1472778l-5.054016 -1.5736389l-2.3318558 -6.2945557l0 -6.2933044z" fill-rule="evenodd"/><path fill="#f9d311" d="m82.71843 265.88608l6.6077576 8.654419l-1.1659317 7.4744873l-3.8868408 3.1472778l-5.054016 -1.5736389l-2.3318558 -6.294586l0 -6.2933044z" fill-rule="evenodd"/><path stroke="#f9d311" stroke-width="1.0" stroke-linejoin="round" stroke-linecap="butt" d="m82.71843 265.88608l6.6077576 8.654419l-1.1659317 7.4744873l-3.8868408 3.1472778l-5.054016 -1.5736389l-2.3318558 -6.294586l0 -6.2933044z" fill-rule="evenodd"/><path fill="#f9d311" d="m54.947994 246.60997l6.6077576 8.654404l-1.1659279 7.4744873l-3.8868446 3.1472778l-5.054016 -1.5736389l-2.3318558 -6.294586l0 -6.293289z" fill-rule="evenodd"/><path stroke="#f9d311" stroke-width="1.0" stroke-linejoin="round" stroke-linecap="butt" d="m54.947994 246.60997l6.6077576 8.654404l-1.1659279 7.4744873l-3.8868446 3.1472778l-5.054016 -1.5736389l-2.3318558 -6.294586l0 -6.293289z" fill-rule="evenodd"/><path fill="#00ff00" d="m40.22281 128.33224l-10.884903 -1.9673691l0 -12.194145l31.097225 -3.1472855z" fill-rule="evenodd"/><path stroke="#000000" stroke-width="1.0" stroke-linejoin="round" stroke-linecap="butt" d="m40.22281 128.33224l-10.884903 -1.9673691l0 -12.194145l31.097225 -3.1472855z" fill-rule="evenodd"/><path fill="#00ff00" d="m15.345455 110.236l12.8277 3.1472778l0.38905907 13.375328z" fill-rule="evenodd"/><path stroke="#000000" stroke-width="1.0" stroke-linejoin="round" stroke-linecap="butt" d="m15.345455 110.236l12.8277 3.1472778l0.38905907 13.375328z" fill-rule="evenodd"/><path fill="#00ff00" d="m67.42907 60.277092l28.765366 31.864044l-18.658585 10.228043l-13.993626 -21.24228z" fill-rule="evenodd"/><path stroke="#000000" stroke-width="1.0" stroke-linejoin="round" stroke-linecap="butt" d="m67.42907 60.277092l28.765366 31.864044l-18.658585 10.228043l-13.993626 -21.24228z" fill-rule="evenodd"/><path fill="#00ff00" d="m101.63306 89.78127l0 -15.735161l17.881721 -1.5736389l6.21994 12.194145z" fill-rule="evenodd"/><path stroke="#000000" stroke-width="1.0" stroke-linejoin="round" stroke-linecap="butt" d="m101.63306 89.78127l0 -15.735161l17.881721 -1.5736389l6.21994 12.194145z" fill-rule="evenodd"/><path fill="#00ff00" d="m101.63306 73.258705l5.443077 -18.09499l11.660522 16.12762z" fill-rule="evenodd"/><path stroke="#000000" stroke-width="1.0" stroke-linejoin="round" stroke-linecap="butt" d="m101.63306 73.258705l5.443077 -18.09499l11.660522 16.12762z" fill-rule="evenodd"/><path fill="#6aa84f" d="m104.74277 19.758757l13.216759 24.783285l7.774933 -0.78619003l-15.160805 -25.963202z" fill-rule="evenodd"/><path stroke="#000000" stroke-width="1.0" stroke-linejoin="round" stroke-linecap="butt" d="m104.74277 19.758757l13.216759 24.783285l7.774933 -0.78619003l-15.160805 -25.963202z" fill-rule="evenodd"/><path fill="#6aa84f" d="m124.95509 44.9357l5.4418335 22.028465l-7.385872 -0.39246368l-3.4977875 -20.849812z" fill-rule="evenodd"/><path stroke="#000000" stroke-width="1.0" stroke-linejoin="round" stroke-linecap="butt" d="m124.95509 44.9357l5.4418335 22.028465l-7.385872 -0.39246368l-3.4977875 -20.849812z" fill-rule="evenodd"/><path fill="#6aa84f" d="m130.78555 68.14529l1.1659393 14.9477005l-4.664963 -1.1799088l-2.7209167 -14.948975z" fill-rule="evenodd"/><path stroke="#000000" stroke-width="1.0" stroke-linejoin="round" stroke-linecap="butt" d="m130.78555 68.14529l1.1659393 14.9477005l-4.664963 -1.1799088l-2.7209167 -14.948975z" fill-rule="evenodd"/><path fill="#00ff00" d="m167.32222 61.457005l3.4990387 18.096249l-17.881714 -7.4744797z" fill-rule="evenodd"/><path stroke="#000000" stroke-width="1.0" stroke-linejoin="round" stroke-linecap="butt" d="m167.32222 61.457005l3.4990387 18.096249l-17.881714 -7.4744797z" fill-rule="evenodd"/><path fill="#00ff00" d="m154.49593 70.898834l-18.269516 13.767792l30.709412 3.9334717l3.4977875 -9.44059z" fill-rule="evenodd"/><path stroke="#000000" stroke-width="1.0" stroke-linejoin="round" stroke-linecap="butt" d="m154.49593 70.898834l-18.269516 13.767792l30.709412 3.9334717l3.4977875 -9.44059z" fill-rule="evenodd"/><path fill="#00ff00" d="m207.7454 73.25866l1.5549927 14.161514l-9.329926 0z" fill-rule="evenodd"/><path stroke="#000000" stroke-width="1.0" stroke-linejoin="round" stroke-linecap="butt" d="m207.7454 73.25866l1.5549927 14.161514l-9.329926 0z" fill-rule="evenodd"/><path fill="#00ff00" d="m209.30128 87.02768l-4.2759094 15.735153l-15.5486145 -5.508377l10.106781 -9.834312z" fill-rule="evenodd"/><path stroke="#000000" stroke-width="1.0" stroke-linejoin="round" stroke-linecap="butt" d="m209.30128 87.02768l-4.2759094 15.735153l-15.5486145 -5.508377l10.106781 -9.834312z" fill-rule="evenodd"/><path fill="#f9d311" d="m170.59705 110.05081l-5.785141 -2.2380524l-2.0802917 -5.196884l-1.0154572 -5.7532043l2.109787 -2.9385605l4.7304535 -0.46138763l3.2057495 3.4137955l3.1465302 4.640358l-0.547699 4.347267z" fill-rule="evenodd"/><path stroke="#f9d311" stroke-width="1.0" stroke-linejoin="round" stroke-linecap="butt" d="m170.59705 110.05081l-5.785141 -2.2380524l-2.0802917 -5.196884l-1.0154572 -5.7532043l2.109787 -2.9385605l4.7304535 -0.46138763l3.2057495 3.4137955l3.1465302 4.640358l-0.547699 4.347267z" fill-rule="evenodd"/><path fill="#f9d311" d="m133.72984 100.34303l-2.7657166 -1.6137543l-1.1078186 -3.4477768l-0.6237488 -3.7828903l0.9117737 -1.862854l2.2023926 -0.17646027l1.5886536 2.313324l1.5925751 3.1125565l-0.14424133 2.823761z" fill-rule="evenodd"/><path stroke="#f9d311" stroke-width="1.0" stroke-linejoin="round" stroke-linecap="butt" d="m133.72984 100.34303l-2.7657166 -1.6137543l-1.1078186 -3.4477768l-0.6237488 -3.7828903l0.9117737 -1.862854l2.2023926 -0.17646027l1.5886536 2.313324l1.5925751 3.1125565l-0.14424133 2.823761z" fill-rule="evenodd"/><path fill="#f9d311" d="m84.4918 112.34411l-5.5902557 -0.82237244l-1.7310257 -2.6488876l-0.6405411 -3.0162964l2.2773743 -1.7117844l4.7167435 -0.55524445l2.9595947 1.6202698l2.822937 2.2812881l-0.8190384 2.3648148z" fill-rule="evenodd"/><path stroke="#f9d311" stroke-width="1.0" stroke-linejoin="round" stroke-linecap="butt" d="m84.4918 112.34411l-5.5902557 -0.82237244l-1.7310257 -2.6488876l-0.6405411 -3.0162964l2.2773743 -1.7117844l4.7167435 -0.55524445l2.9595947 1.6202698l2.822937 2.2812881l-0.8190384 2.3648148z" fill-rule="evenodd"/><path fill="#f9d311" d="m176.31187 321.04544l3.9234772 6.0047913l-0.69229126 5.1861267l-2.3078918 2.1837158l-3.0009155 -1.0918579l-1.3845825 -4.3674316l0 -4.366577z" fill-rule="evenodd"/><path stroke="#f9d311" stroke-width="1.0" stroke-linejoin="round" stroke-linecap="butt" d="m176.31187 321.04544l3.9234772 6.0047913l-0.69229126 5.1861267l-2.3078918 2.1837158l-3.0009155 -1.0918579l-1.3845825 -4.3674316l0 -4.366577z" fill-rule="evenodd"/><path fill="#f9d311" d="m203.43268 307.67014l3.9234924 6.004822l-0.69229126 5.1861267l-2.3078918 2.1837158l-3.0009308 -1.0918579l-1.3845825 -4.367462l0 -4.3665466z" fill-rule="evenodd"/><path stroke="#f9d311" stroke-width="1.0" stroke-linejoin="round" stroke-linecap="butt" d="m203.43268 307.67014l3.9234924 6.004822l-0.69229126 5.1861267l-2.3078918 2.1837158l-3.0009308 -1.0918579l-1.3845825 -4.367462l0 -4.3665466z" fill-rule="evenodd"/><path fill="#f9d311" d="m217.03735 296.8528l3.9234772 6.0047913l-0.69229126 5.1861267l-2.3078918 2.1837158l-3.0009155 -1.0918579l-1.3845825 -4.3674316l0 -4.366577z" fill-rule="evenodd"/><path stroke="#f9d311" stroke-width="1.0" stroke-linejoin="round" stroke-linecap="butt" d="m217.03735 296.8528l3.9234772 6.0047913l-0.69229126 5.1861267l-2.3078918 2.1837158l-3.0009155 -1.0918579l-1.3845825 -4.3674316l0 -4.366577z" fill-rule="evenodd"/><path fill="#f9d311" d="m217.03735 276.54947l3.9234772 6.0047913l-0.69229126 5.1861267l-2.3078918 2.1837158l-3.0009155 -1.0918579l-1.3845825 -4.3674316l0 -4.366577z" fill-rule="evenodd"/><path stroke="#f9d311" stroke-width="1.0" stroke-linejoin="round" stroke-linecap="butt" d="m217.03735 276.54947l3.9234772 6.0047913l-0.69229126 5.1861267l-2.3078918 2.1837158l-3.0009155 -1.0918579l-1.3845825 -4.3674316l0 -4.366577z" fill-rule="evenodd"/><path fill="#f9d311" d="m228.48244 243.43997l3.9234772 6.0048065l-0.69229126 5.1861267l-2.3078918 2.183731l-3.0009155 -1.0918732l-1.3845825 -4.367447l0 -4.366577z" fill-rule="evenodd"/><path stroke="#f9d311" stroke-width="1.0" stroke-linejoin="round" stroke-linecap="butt" d="m228.48244 243.43997l3.9234772 6.0048065l-0.69229126 5.1861267l-2.3078918 2.183731l-3.0009155 -1.0918732l-1.3845825 -4.367447l0 -4.366577z" fill-rule="evenodd"/><path fill="#f9d311" d="m244.65982 250.10257l-1.339035 4.690918l-2.199463 3.440918l-1.4414825 1.1472168l-0.34117126 -1.1951294l1.3493805 -3.1920776l1.7029114 -2.9843445z" fill-rule="evenodd"/><path stroke="#f9d311" stroke-width="1.0" stroke-linejoin="round" stroke-linecap="butt" d="m244.65982 250.10257l-1.339035 4.690918l-2.199463 3.440918l-1.4414825 1.1472168l-0.34117126 -1.1951294l1.3493805 -3.1920776l1.7029114 -2.9843445z" fill-rule="evenodd"/><path fill="#f9d311" d="m147.50404 318.2919l3.1891327 5.2991943l-0.5627136 4.576721l-1.8759308 1.927124l-2.4392395 -0.963562l-1.1254425 -3.854248l0 -3.853485z" fill-rule="evenodd"/><path stroke="#f9d311" stroke-width="1.0" stroke-linejoin="round" stroke-linecap="butt" d="m147.50404 318.2919l3.1891327 5.2991943l-0.5627136 4.576721l-1.8759308 1.927124l-2.4392395 -0.963562l-1.1254425 -3.854248l0 -3.853485z" fill-rule="evenodd"/><path fill="#f9d311" d="m97.13273 310.22812l3.8400345 6.0047913l-0.6775665 5.1861267l-2.2588043 2.1837158l-2.9370956 -1.0918579l-1.355133 -4.3674316l0 -4.366577z" fill-rule="evenodd"/><path stroke="#f9d311" stroke-width="1.0" stroke-linejoin="round" stroke-linecap="butt" d="m97.13273 310.22812l3.8400345 6.0047913l-0.6775665 5.1861267l-2.2588043 2.1837158l-2.9370956 -1.0918579l-1.355133 -4.3674316l0 -4.366577z" fill-rule="evenodd"/><path fill="#f9d311" d="m70.39805 294.78854l5.381157 2.9748535l1.7745514 4.2473145l-0.67233276 2.6175842l-2.5888824 0.39968872l-2.8796234 -2.7677612l-1.90448 -3.3364563z" fill-rule="evenodd"/><path stroke="#f9d311" stroke-width="1.0" stroke-linejoin="round" stroke-linecap="butt" d="m70.39805 294.78854l5.381157 2.9748535l1.7745514 4.2473145l-0.67233276 2.6175842l-2.5888824 0.39968872l-2.8796234 -2.7677612l-1.90448 -3.3364563z" fill-rule="evenodd"/><path fill="#f9d311" d="m202.18408 326.13583l1.7252502 5.9536743l-1.7141876 4.2740173l-2.305008 1.3707886l-2.1098175 -1.5690918l-0.10134888 -4.0178223l0.9856262 -3.7225647z" fill-rule="evenodd"/><path stroke="#f9d311" stroke-width="1.0" stroke-linejoin="round" stroke-linecap="butt" d="m202.18408 326.13583l1.7252502 5.9536743l-1.7141876 4.2740173l-2.305008 1.3707886l-2.1098175 -1.5690918l-0.10134888 -4.0178223l0.9856262 -3.7225647z" fill-rule="evenodd"/><path fill="#f9d311" d="m153.14027 342.31665l3.1891327 4.598999l-0.5627136 3.9719849l-1.8759308 1.6724854l-2.4392395 -0.8362427l-1.1254425 -3.3449707l0 -3.3442993z" fill-rule="evenodd"/><path stroke="#f9d311" stroke-width="1.0" stroke-linejoin="round" stroke-linecap="butt" d="m153.14027 342.31665l3.1891327 4.598999l-0.5627136 3.9719849l-1.8759308 1.6724854l-2.4392395 -0.8362427l-1.1254425 -3.3449707l0 -3.3442993z" fill-rule="evenodd"/><path fill="#f9d311" d="m123.7348 334.9955l4.069664 4.641571l0.24983978 4.604767l-1.508049 2.233429l-2.57016 -0.5099182l-1.7846146 -3.5904846l-0.67671967 -3.7919617z" fill-rule="evenodd"/><path stroke="#f9d311" stroke-width="1.0" stroke-linejoin="round" stroke-linecap="butt" d="m123.7348 334.9955l4.069664 4.641571l0.24983978 4.604767l-1.508049 2.233429l-2.57016 -0.5099182l-1.7846146 -3.5904846l-0.67671967 -3.7919617z" fill-rule="evenodd"/><path fill="#f9d311" d="m227.02223 122.04793l4.4360504 4.2847137l0.6270447 4.5684967l-1.3192139 2.352539l-2.6027222 -0.29257202l-2.0729675 -3.428833l-0.9856262 -3.72258z" fill-rule="evenodd"/><path stroke="#f9d311" stroke-width="1.0" stroke-linejoin="round" stroke-linecap="butt" d="m227.02223 122.04793l4.4360504 4.2847137l0.6270447 4.5684967l-1.3192139 2.352539l-2.6027222 -0.29257202l-2.0729675 -3.428833l-0.9856262 -3.72258z" fill-rule="evenodd"/><path fill="#f9d311" d="m228.52483 152.85245l3.1891327 5.2992096l-0.5627136 4.576721l-1.8759308 1.927124l-2.4392548 -0.963562l-1.1254272 -3.854248l0 -3.8534698z" fill-rule="evenodd"/><path stroke="#f9d311" stroke-width="1.0" stroke-linejoin="round" stroke-linecap="butt" d="m228.52483 152.85245l3.1891327 5.2992096l-0.5627136 4.576721l-1.8759308 1.927124l-2.4392548 -0.963562l-1.1254272 -3.854248l0 -3.8534698z" fill-rule="evenodd"/><path fill="#f9d311" d="m240.7993 180.66829l-2.0020294 6.030197l1.7630157 4.2605133l2.4678345 1.3258057l2.3215027 -1.6276093l0.19900513 -4.044815l-0.98561096 -3.72258z" fill-rule="evenodd"/><path stroke="#f9d311" stroke-width="1.0" stroke-linejoin="round" stroke-linecap="butt" d="m240.7993 180.66829l-2.0020294 6.030197l1.7630157 4.2605133l2.4678345 1.3258057l2.3215027 -1.6276093l0.19900513 -4.044815l-0.98561096 -3.72258z" fill-rule="evenodd"/><path fill="#f9d311" d="m241.27902 219.86334l4.4360504 4.2847137l0.6270294 4.568512l-1.3191986 2.3525238l-2.6027222 -0.29255676l-2.0729675 -3.4288483l-0.9856262 -3.7225647z" fill-rule="evenodd"/><path stroke="#f9d311" stroke-width="1.0" stroke-linejoin="round" stroke-linecap="butt" d="m241.27902 219.86334l4.4360504 4.2847137l0.6270294 4.568512l-1.3191986 2.3525238l-2.6027222 -0.29255676l-2.0729675 -3.4288483l-0.9856262 -3.7225647z" fill-rule="evenodd"/><path fill="#f9d311" d="m255.55266 204.97607l0.972641 5.113388l-1.3604431 3.1472778l-1.5549927 -2.1629639l0 -4.7209167z" fill-rule="evenodd"/><path stroke="#f9d311" stroke-width="1.0" stroke-linejoin="round" stroke-linecap="butt" d="m255.55266 204.97607l0.972641 5.113388l-1.3604431 3.1472778l-1.5549927 -2.1629639l0 -4.7209167z" fill-rule="evenodd"/><path fill="#f9d311" d="m42.034027 162.94972l3.499031 3.3428802l0.7768707 7.4744873l-2.9154434 4.327194l-2.1373253 1.7705078l-3.109974 -4.1303406l-1.1659279 -7.0807495l1.9427986 -3.7378845z" fill-rule="evenodd"/><path stroke="#f9d311" stroke-width="1.0" stroke-linejoin="round" stroke-linecap="butt" d="m42.034027 162.94972l3.499031 3.3428802l0.7768707 7.4744873l-2.9154434 4.327194l-2.1373253 1.7705078l-3.109974 -4.1303406l-1.1659279 -7.0807495l1.9427986 -3.7378845z" fill-rule="evenodd"/><path fill="#ff0000" d="m126.35274 88.77546l11.402405 32.2136l-26.1305 -0.4807968l-4.275902 -29.328804z" fill-rule="evenodd"/><path stroke="#000000" stroke-width="1.0" stroke-linejoin="round" stroke-linecap="butt" d="m126.35274 88.77546l11.402405 32.2136l-26.1305 -0.4807968l-4.275902 -29.328804z" fill-rule="evenodd"/><path fill="#ff0000" d="m139.65546 120.98898l6.6513977 27.886398l-38.007996 -0.9615936l3.8008041 -28.848z" fill-rule="evenodd"/><path stroke="#000000" stroke-width="1.0" stroke-linejoin="round" stroke-linecap="butt" d="m139.65546 120.98898l6.6513977 27.886398l-38.007996 -0.9615936l3.8008041 -28.848z" fill-rule="evenodd"/><path fill="#ff0000" d="m79.79526 99.833855l27.080704 -7.6928024l-14.728104 15.866402z" fill-rule="evenodd"/><path stroke="#000000" stroke-width="1.0" stroke-linejoin="round" stroke-linecap="butt" d="m79.79526 99.833855l27.080704 -7.6928024l-14.728104 15.866402z" fill-rule="evenodd"/><path fill="#ff0000" d="m93.572 106.08425l17.1036 5.288803l-3.3256989 -18.751205z" fill-rule="evenodd"/><path stroke="#000000" stroke-width="1.0" stroke-linejoin="round" stroke-linecap="butt" d="m93.572 106.08425l17.1036 5.288803l-3.3256989 -18.751205z" fill-rule="evenodd"/><path fill="#ff0000" d="m110.20442 130.1242l-44.6594 -21.155197l-18.5289 15.866402l46.5598 26.443993l11.877502 5.7696075z" fill-rule="evenodd"/><path stroke="#000000" stroke-width="1.0" stroke-linejoin="round" stroke-linecap="butt" d="m110.20442 130.1242l-44.6594 -21.155197l-18.5289 15.866402l46.5598 26.443993l11.877502 5.7696075z" fill-rule="evenodd"/><path fill="#ff0000" d="m81.22044 115.21942l13.302795 -9.1352005l8.076698 2.4039993l-7.1264954 14.423996z" fill-rule="evenodd"/><path stroke="#000000" stroke-width="1.0" stroke-linejoin="round" stroke-linecap="butt" d="m81.22044 115.21942l13.302795 -9.1352005l8.076698 2.4039993l-7.1264954 14.423996z" fill-rule="evenodd"/><path fill="#ff0000" d="m133.1167 102.3691l20.213562 -14.161514l13.216766 3.5397491l-29.542252 22.423454z" fill-rule="evenodd"/><path stroke="#000000" stroke-width="1.0" stroke-linejoin="round" stroke-linecap="butt" d="m133.1167 102.3691l20.213562 -14.161514l13.216766 3.5397491l-29.542252 22.423454z" fill-rule="evenodd"/><path fill="#ff0000" d="m135.83737 87.420135l1.944046 8.654404l14.38269 -7.4744873z" fill-rule="evenodd"/><path stroke="#000000" stroke-width="1.0" stroke-linejoin="round" stroke-linecap="butt" d="m135.83737 87.420135l1.944046 8.654404l14.38269 -7.4744873z" fill-rule="evenodd"/><path fill="#ff0000" d="m45.276558 125.18493l-27.599443 36.191246l13.605816 12.981598l26.432272 -41.30464z" fill-rule="evenodd"/><path stroke="#000000" stroke-width="1.0" stroke-linejoin="round" stroke-linecap="butt" d="m45.276558 125.18493l-27.599443 36.191246l13.605816 12.981598l26.432272 -41.30464z" fill-rule="evenodd"/><path fill="#ff0000" d="m54.6031 140.52632l7.774933 17.70253l-10.883656 14.555237l-8.5518 -12.587875z" fill-rule="evenodd"/><path stroke="#000000" stroke-width="1.0" stroke-linejoin="round" stroke-linecap="butt" d="m54.6031 140.52632l7.774933 17.70253l-10.883656 14.555237l-8.5518 -12.587875z" fill-rule="evenodd"/><path fill="#ff0000" d="m78.703224 144.06734l-0.38906097 24.78328l-17.1036 -17.702515l5.441826 -6.687042l0.38906097 -7.474472z" fill-rule="evenodd"/><path stroke="#000000" stroke-width="1.0" stroke-linejoin="round" stroke-linecap="butt" d="m78.703224 144.06734l-0.38906097 24.78328l-17.1036 -17.702515l5.441826 -6.687042l0.38906097 -7.474472z" fill-rule="evenodd"/><path fill="#ff0000" d="m88.80644 150.36188l5.4430695 26.74939l27.210388 -5.507126l-7.385872 -12.58786z" fill-rule="evenodd"/><path stroke="#000000" stroke-width="1.0" stroke-linejoin="round" stroke-linecap="butt" d="m88.80644 150.36188l5.4430695 26.74939l27.210388 -5.507126l-7.385872 -12.58786z" fill-rule="evenodd"/><path fill="#ff0000" d="m115.73246 157.04863l1.8374405 -8.260391l-9.64547 0l-0.45973206 5.0480957z" fill-rule="evenodd"/><path stroke="#000000" stroke-width="1.0" stroke-linejoin="round" stroke-linecap="butt" d="m115.73246 157.04863l1.8374405 -8.260391l-9.64547 0l-0.45973206 5.0480957z" fill-rule="evenodd"/><path fill="#ff0000" d="m159.93828 100.00925l8.16275 14.9477005l-14.771744 8.654404l-8.551804 -11.801689z" fill-rule="evenodd"/><path stroke="#000000" stroke-width="1.0" stroke-linejoin="round" stroke-linecap="butt" d="m159.93828 100.00925l8.16275 14.9477005l-14.771744 8.654404l-8.551804 -11.801689z" fill-rule="evenodd"/><path fill="#ff0000" d="m173.54044 91.354866l28.765366 11.407959l-12.827698 9.834312l-12.050827 -7.86821z" fill-rule="evenodd"/><path stroke="#000000" stroke-width="1.0" stroke-linejoin="round" stroke-linecap="butt" d="m173.54044 91.354866l28.765366 11.407959l-12.827698 9.834312l-12.050827 -7.86821z" fill-rule="evenodd"/><path fill="#ff0000" d="m202.3043 105.51634l24.100403 14.161522l-17.881714 7.8669434l-17.103592 -14.553978z" fill-rule="evenodd"/><path stroke="#000000" stroke-width="1.0" stroke-linejoin="round" stroke-linecap="butt" d="m202.3043 105.51634l24.100403 14.161522l-17.881714 7.8669434l-17.103592 -14.553978z" fill-rule="evenodd"/><path fill="#ff0000" d="m224.07106 122.8251l3.1087189 25.17575l-13.6045685 0.39372253l-0.7781067 -20.849808z" fill-rule="evenodd"/><path stroke="#000000" stroke-width="1.0" stroke-linejoin="round" stroke-linecap="butt" d="m224.07106 122.8251l3.1087189 25.17575l-13.6045685 0.39372253l-0.7781067 -20.849808z" fill-rule="evenodd"/><path fill="#ff0000" d="m180.15042 107.08998l-33.04004 42.484543l23.711365 11.801697l16.714539 -46.41929z" fill-rule="evenodd"/><path stroke="#000000" stroke-width="1.0" stroke-linejoin="round" stroke-linecap="butt" d="m180.15042 107.08998l-33.04004 42.484543l23.711365 11.801697l16.714539 -46.41929z" fill-rule="evenodd"/><path fill="#ff0000" d="m185.97803 126.36487l19.047638 0.7874527l-14.382675 -12.981598z" fill-rule="evenodd"/><path stroke="#000000" stroke-width="1.0" stroke-linejoin="round" stroke-linecap="butt" d="m185.97803 126.36487l19.047638 0.7874527l-14.382675 -12.981598z" fill-rule="evenodd"/><path fill="#ff0000" d="m196.474 129.90584l15.159561 19.66864l-21.767319 14.161514l-5.4430695 -21.636002z" fill-rule="evenodd"/><path stroke="#000000" stroke-width="1.0" stroke-linejoin="round" stroke-linecap="butt" d="m196.474 129.90584l15.159561 19.66864l-21.767319 14.161514l-5.4430695 -21.636002z" fill-rule="evenodd"/><path fill="#ff0000" d="m187.53328 126.75857l-4.664963 14.161507l11.273956 -11.8016815z" fill-rule="evenodd"/><path stroke="#000000" stroke-width="1.0" stroke-linejoin="round" stroke-linecap="butt" d="m187.53328 126.75857l-4.664963 14.161507l11.273956 -11.8016815z" fill-rule="evenodd"/><path fill="#ff0000" d="m240.3955 133.83931l17.103592 23.20964l-22.545425 7.86821l-9.717728 -30.684128z" fill-rule="evenodd"/><path stroke="#000000" stroke-width="1.0" stroke-linejoin="round" stroke-linecap="butt" d="m240.3955 133.83931l17.103592 23.20964l-22.545425 7.86821l-9.717728 -30.684128z" fill-rule="evenodd"/><path fill="#ff0000" d="m256.72128 160.58989l6.9967957 28.716766l-13.216751 0.39245605l-13.993622 -25.569473l24.100418 -4.327194z" fill-rule="evenodd"/><path stroke="#000000" stroke-width="1.0" stroke-linejoin="round" stroke-linecap="butt" d="m256.72128 160.58989l6.9967957 28.716766l-13.216751 0.39245605l-13.993622 -25.569473l24.100418 -4.327194z" fill-rule="evenodd"/><path fill="#ff0000" d="m264.49414 190.4865l-2.3318481 18.882431l-15.937683 -10.228043l3.8868408 -8.654388z" fill-rule="evenodd"/><path stroke="#000000" stroke-width="1.0" stroke-linejoin="round" stroke-linecap="butt" d="m264.49414 190.4865l-2.3318481 18.882431l-15.937683 -10.228043l3.8868408 -8.654388z" fill-rule="evenodd"/><path fill="#ff0000" d="m19.62152 165.30954l-1.554987 6.6882935l-4.664957 28.716766l19.047644 -4.720932l2.720913 -22.815918z" fill-rule="evenodd"/><path stroke="#000000" stroke-width="1.0" stroke-linejoin="round" stroke-linecap="butt" d="m19.62152 165.30954l-1.554987 6.6882935l-4.664957 28.716766l19.047644 -4.720932l2.720913 -22.815918z" fill-rule="evenodd"/><path fill="#ff0000" d="m13.7906 202.28815l10.106787 47.599197l15.937674 -26.356934z" fill-rule="evenodd"/><path stroke="#000000" stroke-width="1.0" stroke-linejoin="round" stroke-linecap="butt" d="m13.7906 202.28815l10.106787 47.599197l15.937674 -26.356934z" fill-rule="evenodd"/><path fill="#ff0000" d="m25.063086 197.17351l0 10.621765l-8.5518 -5.5071106z" fill-rule="evenodd"/><path stroke="#000000" stroke-width="1.0" stroke-linejoin="round" stroke-linecap="butt" d="m25.063086 197.17351l0 10.621765l-8.5518 -5.5071106z" fill-rule="evenodd"/><path fill="#ff0000" d="m126.50949 149.57442l6.996811 21.24228l33.430344 10.228043l4.275894 -17.308792z" fill-rule="evenodd"/><path stroke="#000000" stroke-width="1.0" stroke-linejoin="round" stroke-linecap="butt" d="m126.50949 149.57442l6.996811 21.24228l33.430344 10.228043l4.275894 -17.308792z" fill-rule="evenodd"/><path fill="#ff0000" d="m171.59662 164.52336l20.991684 -1.5736389l-0.38905334 21.242264l-21.379501 -2.3598328z" fill-rule="evenodd"/><path stroke="#000000" stroke-width="1.0" stroke-linejoin="round" stroke-linecap="butt" d="m171.59662 164.52336l20.991684 -1.5736389l-0.38905334 21.242264l-21.379501 -2.3598328z" fill-rule="evenodd"/><path fill="#ff0000" d="m193.36328 161.76984l30.320358 -11.8016815l3.8868408 25.569473l-31.486282 0z" fill-rule="evenodd"/><path stroke="#000000" stroke-width="1.0" stroke-linejoin="round" stroke-linecap="butt" d="m193.36328 161.76984l30.320358 -11.8016815l3.8868408 25.569473l-31.486282 0z" fill-rule="evenodd"/><path fill="#ff0000" d="m51.106007 173.57146l-15.937675 8.260681l-0.38905716 17.308792l5.054016 22.029724z" fill-rule="evenodd"/><path stroke="#000000" stroke-width="1.0" stroke-linejoin="round" stroke-linecap="butt" d="m51.106007 173.57146l-15.937675 8.260681l-0.38905716 17.308792l5.054016 22.029724z" fill-rule="evenodd"/><path fill="#ff0000" d="m63.932755 157.04889l-11.66177 20.849808l-6.219944 36.189987l20.21357 -7.080765z" fill-rule="evenodd"/><path stroke="#000000" stroke-width="1.0" stroke-linejoin="round" stroke-linecap="butt" d="m63.932755 157.04889l-11.66177 20.849808l-6.219944 36.189987l20.21357 -7.080765z" fill-rule="evenodd"/><path fill="#ff0000" d="m68.59585 166.09698l26.432266 14.16153l-0.7768631 20.848541l-26.044464 -12.587875z" fill-rule="evenodd"/><path stroke="#000000" stroke-width="1.0" stroke-linejoin="round" stroke-linecap="butt" d="m68.59585 166.09698l26.432266 14.16153l-0.7768631 20.848541l-26.044464 -12.587875z" fill-rule="evenodd"/><path fill="#ff0000" d="m96.96974 180.6522l49.36676 -3.1472778l6.996811 26.356918l-44.701797 -8.654404l-10.49585 1.9661102z" fill-rule="evenodd"/><path stroke="#000000" stroke-width="1.0" stroke-linejoin="round" stroke-linecap="butt" d="m96.96974 180.6522l49.36676 -3.1472778l6.996811 26.356918l-44.701797 -8.654404l-10.49585 1.9661102z" fill-rule="evenodd"/><path fill="#ff0000" d="m167.32101 185.76558l34.98532 -0.78619385l14.770493 23.602112l-48.58864 -2.3598328z" fill-rule="evenodd"/><path stroke="#000000" stroke-width="1.0" stroke-linejoin="round" stroke-linecap="butt" d="m167.32101 185.76558l34.98532 -0.78619385l14.770493 23.602112l-48.58864 -2.3598328z" fill-rule="evenodd"/><path fill="#ff0000" d="m227.17995 177.11119l19.824509 26.356934l-29.93129 -0.7874603l-6.218704 -9.834305z" fill-rule="evenodd"/><path stroke="#000000" stroke-width="1.0" stroke-linejoin="round" stroke-linecap="butt" d="m227.17995 177.11119l19.824509 26.356934l-29.93129 -0.7874603l-6.218704 -9.834305z" fill-rule="evenodd"/><path fill="#ff0000" d="m114.45968 197.96095l70.747505 11.407959l-6.21994 30.682861l-41.59308 -25.17575z" fill-rule="evenodd"/><path stroke="#000000" stroke-width="1.0" stroke-linejoin="round" stroke-linecap="butt" d="m114.45968 197.96095l70.747505 11.407959l-6.21994 30.682861l-41.59308 -25.17575z" fill-rule="evenodd"/><path fill="#ff0000" d="m41.38903 221.563l14.770496 16.916336l-17.88047 27.535583l-12.438641 -14.947708z" fill-rule="evenodd"/><path stroke="#000000" stroke-width="1.0" stroke-linejoin="round" stroke-linecap="butt" d="m41.38903 221.563l14.770496 16.916336l-17.88047 27.535583l-12.438641 -14.947708z" fill-rule="evenodd"/><path fill="#ff0000" d="m43.719902 260.2452l4.664959 1.9673767l27.210384 16.522614l-11.272713 23.209625l-26.822575 -30.684113z" fill-rule="evenodd"/><path stroke="#000000" stroke-width="1.0" stroke-linejoin="round" stroke-linecap="butt" d="m43.719902 260.2452l4.664959 1.9673767l27.210384 16.522614l-11.272713 23.209625l-26.822575 -30.684113z" fill-rule="evenodd"/><path fill="#ff0000" d="m197.63882 209.8926l1.5549774 33.831406l24.878525 4.327194l-6.998047 -35.797516z" fill-rule="evenodd"/><path stroke="#000000" stroke-width="1.0" stroke-linejoin="round" stroke-linecap="butt" d="m197.63882 209.8926l1.5549774 33.831406l24.878525 4.327194l-6.998047 -35.797516z" fill-rule="evenodd"/><path fill="#ff0000" d="m230.28828 205.17293l21.379501 0l-1.9427948 17.308807l-16.71579 -4.720932z" fill-rule="evenodd"/><path stroke="#000000" stroke-width="1.0" stroke-linejoin="round" stroke-linecap="butt" d="m230.28828 205.17293l21.379501 0l-1.9427948 17.308807l-16.71579 -4.720932z" fill-rule="evenodd"/><path fill="#ff0000" d="m261.38452 212.25368l-5.830887 31.864044l-13.6045685 2.3598328z" fill-rule="evenodd"/><path stroke="#000000" stroke-width="1.0" stroke-linejoin="round" stroke-linecap="butt" d="m261.38452 212.25368l-5.830887 31.864044l-13.6045685 2.3598328z" fill-rule="evenodd"/><path fill="#ff0000" d="m62.37646 210.68004l39.259968 3.9334717l-1.1659241 22.029724l-38.870914 -5.900833z" fill-rule="evenodd"/><path stroke="#000000" stroke-width="1.0" stroke-linejoin="round" stroke-linecap="butt" d="m62.37646 210.68004l39.259968 3.9334717l-1.1659241 22.029724l-38.870914 -5.900833z" fill-rule="evenodd"/><path fill="#ff0000" d="m80.255554 199.66457l21.768562 2.3610992l0 10.620499l-24.100418 -3.9334717z" fill-rule="evenodd"/><path stroke="#000000" stroke-width="1.0" stroke-linejoin="round" stroke-linecap="butt" d="m80.255554 199.66457l21.768562 2.3610992l0 10.620499l-24.100418 -3.9334717z" fill-rule="evenodd"/><path fill="#ff0000" d="m57.71183 242.1503l6.996811 -9.83432l28.37632 5.507126l-6.218704 28.716751z" fill-rule="evenodd"/><path stroke="#000000" stroke-width="1.0" stroke-linejoin="round" stroke-linecap="butt" d="m57.71183 242.1503l6.996811 -9.83432l28.37632 5.507126l-6.218704 28.716751z" fill-rule="evenodd"/><path fill="#ff0000" d="m64.32044 250.80466l-1.944046 18.09497l10.883652 6.294586l5.443077 -9.83432z" fill-rule="evenodd"/><path stroke="#000000" stroke-width="1.0" stroke-linejoin="round" stroke-linecap="butt" d="m64.32044 250.80466l-1.944046 18.09497l10.883652 6.294586l5.443077 -9.83432z" fill-rule="evenodd"/><path fill="#ff0000" d="m112.12894 203.5993l23.71135 16.91507l-13.6045685 33.04396l-20.99044 -17.70253z" fill-rule="evenodd"/><path stroke="#000000" stroke-width="1.0" stroke-linejoin="round" stroke-linecap="butt" d="m112.12894 203.5993l23.71135 16.91507l-13.6045685 33.04396l-20.99044 -17.70253z" fill-rule="evenodd"/><path fill="#ff0000" d="m150.21954 228.38252l-8.16275 17.701263l19.047653 9.441849l5.441818 -20.456085z" fill-rule="evenodd"/><path stroke="#000000" stroke-width="1.0" stroke-linejoin="round" stroke-linecap="butt" d="m150.21954 228.38252l-8.16275 17.701263l19.047653 9.441849l5.441818 -20.456085z" fill-rule="evenodd"/><path fill="#ff0000" d="m132.34015 238.21681l8.551804 2.3598328l2.3318481 27.143112l-13.993622 -14.555237z" fill-rule="evenodd"/><path stroke="#000000" stroke-width="1.0" stroke-linejoin="round" stroke-linecap="butt" d="m132.34015 238.21681l8.551804 2.3598328l2.3318481 27.143112l-13.993622 -14.555237z" fill-rule="evenodd"/><path fill="#ff0000" d="m145.94331 253.95193l51.69986 11.801666l13.993622 20.062378l-62.194458 -12.981598z" fill-rule="evenodd"/><path stroke="#000000" stroke-width="1.0" stroke-linejoin="round" stroke-linecap="butt" d="m145.94331 253.95193l51.69986 11.801666l13.993622 20.062378l-62.194458 -12.981598z" fill-rule="evenodd"/><path fill="#ff0000" d="m90.75032 264.17996l22.545425 -10.228027l9.717728 38.551056l-25.266342 12.981598z" fill-rule="evenodd"/><path stroke="#000000" stroke-width="1.0" stroke-linejoin="round" stroke-linecap="butt" d="m90.75032 264.17996l22.545425 -10.228027l9.717728 38.551056l-25.266342 12.981598z" fill-rule="evenodd"/><path fill="#ff0000" d="m74.81399 287.78198l17.1036 -0.78619385l4.275902 22.029755l-13.993629 -0.7874756z" fill-rule="evenodd"/><path stroke="#000000" stroke-width="1.0" stroke-linejoin="round" stroke-linecap="butt" d="m74.81399 287.78198l17.1036 -0.78619385l4.275902 22.029755l-13.993629 -0.7874756z" fill-rule="evenodd"/><path fill="#ff0000" d="m67.42887 301.94473l23.7126 10.226776l2.3318558 18.48999l-27.598198 -22.8172z" fill-rule="evenodd"/><path stroke="#000000" stroke-width="1.0" stroke-linejoin="round" stroke-linecap="butt" d="m67.42887 301.94473l23.7126 10.226776l2.3318558 18.48999l-27.598198 -22.8172z" fill-rule="evenodd"/><path fill="#ff0000" d="m96.58104 323.18695l26.432274 8.654388l-3.8868408 20.062378l-26.432274 -16.128876z" fill-rule="evenodd"/><path stroke="#000000" stroke-width="1.0" stroke-linejoin="round" stroke-linecap="butt" d="m96.58104 323.18695l26.432274 8.654388l-3.8868408 20.062378l-26.432274 -16.128876z" fill-rule="evenodd"/><path fill="#ff0000" d="m101.24528 306.6644l43.535866 11.801666l3.1099854 18.882446l-44.313995 -12.58786z" fill-rule="evenodd"/><path stroke="#000000" stroke-width="1.0" stroke-linejoin="round" stroke-linecap="butt" d="m101.24528 306.6644l43.535866 11.801666l3.1099854 18.882446l-44.313995 -12.58786z" fill-rule="evenodd"/><path fill="#ff0000" d="m129.23018 336.56226l5.4418335 0l12.43988 4.7196655l-0.7781067 12.589111l-16.714554 -0.39370728z" fill-rule="evenodd"/><path stroke="#000000" stroke-width="1.0" stroke-linejoin="round" stroke-linecap="butt" d="m129.23018 336.56226l5.4418335 0l12.43988 4.7196655l-0.7781067 12.589111l-16.714554 -0.39370728z" fill-rule="evenodd"/><path fill="#ff0000" d="m152.93954 335.7748l41.593063 0l-1.1659241 7.8681946l-29.153183 10.620514z" fill-rule="evenodd"/><path stroke="#000000" stroke-width="1.0" stroke-linejoin="round" stroke-linecap="butt" d="m152.93954 335.7748l41.593063 0l-1.1659241 7.8681946l-29.153183 10.620514z" fill-rule="evenodd"/><path fill="#ff0000" d="m123.39978 279.12762l24.489471 -7.8669434l0.3890686 40.91092l-19.824524 -1.5723877z" fill-rule="evenodd"/><path stroke="#000000" stroke-width="1.0" stroke-linejoin="round" stroke-linecap="butt" d="m123.39978 279.12762l24.489471 -7.8669434l0.3890686 40.91092l-19.824524 -1.5723877z" fill-rule="evenodd"/><path fill="#ff0000" d="m163.43571 275.9816l17.103592 4.3272095l2.7209167 43.272003l-34.2072 -8.261963z" fill-rule="evenodd"/><path stroke="#000000" stroke-width="1.0" stroke-linejoin="round" stroke-linecap="butt" d="m163.43571 275.9816l17.103592 4.3272095l2.7209167 43.272003l-34.2072 -8.261963z" fill-rule="evenodd"/><path fill="#ff0000" d="m154.10661 317.67984l0.7768707 15.735168l14.771744 0l-2.3330994 -12.589142z" fill-rule="evenodd"/><path stroke="#000000" stroke-width="1.0" stroke-linejoin="round" stroke-linecap="butt" d="m154.10661 317.67984l0.7768707 15.735168l14.771744 0l-2.3330994 -12.589142z" fill-rule="evenodd"/><path fill="#ff0000" d="m192.19751 283.06235l22.156372 4.327179l-4.275894 19.66864l-18.658585 -2.75354z" fill-rule="evenodd"/><path stroke="#000000" stroke-width="1.0" stroke-linejoin="round" stroke-linecap="butt" d="m192.19751 283.06235l22.156372 4.327179l-4.275894 19.66864l-18.658585 -2.75354z" fill-rule="evenodd"/><path fill="#ff0000" d="m184.81223 305.8782l12.827698 0.78619385l-1.9440308 25.57074l-11.27272 -0.3937378z" fill-rule="evenodd"/><path stroke="#000000" stroke-width="1.0" stroke-linejoin="round" stroke-linecap="butt" d="m184.81223 305.8782l12.827698 0.78619385l-1.9440308 25.57074l-11.27272 -0.3937378z" fill-rule="evenodd"/><path fill="#ff0000" d="m220.57144 261.81885l26.044449 2.3611145l-19.436691 37.764862l-7.3846283 -26.75064z" fill-rule="evenodd"/><path stroke="#000000" stroke-width="1.0" stroke-linejoin="round" stroke-linecap="butt" d="m220.57144 261.81885l26.044449 2.3611145l-19.436691 37.764862l-7.3846283 -26.75064z" fill-rule="evenodd"/><path fill="#ff0000" d="m202.69241 268.8996l15.159546 -6.2933044l2.7209167 14.16153l-10.49585 0.3937378z" fill-rule="evenodd"/><path stroke="#000000" stroke-width="1.0" stroke-linejoin="round" stroke-linecap="butt" d="m202.69241 268.8996l15.159546 -6.2933044l2.7209167 14.16153l-10.49585 0.3937378z" fill-rule="evenodd"/><path fill="#ff0000" d="m184.42369 229.9549l13.216766 1.9673615l-0.7768707 33.4377l-18.658585 -4.3272095z" fill-rule="evenodd"/><path stroke="#000000" stroke-width="1.0" stroke-linejoin="round" stroke-linecap="butt" d="m184.42369 229.9549l13.216766 1.9673615l-0.7768707 33.4377l-18.658585 -4.3272095z" fill-rule="evenodd"/><path fill="#ff0000" d="m222.51526 223.26788l22.545425 11.014221l-5.830887 13.769058l-13.216766 -7.4744873z" fill-rule="evenodd"/><path stroke="#000000" stroke-width="1.0" stroke-linejoin="round" stroke-linecap="butt" d="m222.51526 223.26788l22.545425 11.014221l-5.830887 13.769058l-13.216766 -7.4744873z" fill-rule="evenodd"/></g></svg>